<svg id="Calque_1" data-name="Calque 1" xmlns="http://www.w3.org/2000/svg" width="1000.01" height="201.09" viewBox="0 0 1000.01 201.09">
  <defs>
    <style>
      .cls-1 {
        fill: #fff;
      }

      .cls-2 {
        fill: #f3722c;
      }
    </style>
  </defs>
  <title>runpier_logo_white</title>
  <g>
    <g>
      <path class="cls-1" d="M271.29,186.72l-34.85-60.56H217v60.58H191.63v-152h52.49q17.5,0,29.68,6.13T292,57.29a44.66,44.66,0,0,1,6,23,45.53,45.53,0,0,1-8.64,27q-8.64,12.09-26.58,16.49l37.63,63ZM217,105.24h27.4q13.92,0,21-7t7.07-18.7q0-11.74-7-18.37t-21.09-6.63H217Z" transform="translate(0.01 0.15)"/>
      <path class="cls-1" d="M440.53,65.59V186.74H415.2v-14.3a40.69,40.69,0,0,1-15.49,11.77,49.26,49.26,0,0,1-20.37,4.28,54.48,54.48,0,0,1-25.64-5.93A42.9,42.9,0,0,1,335.79,165q-6.51-11.65-6.49-28.15V65.59h25.33v67.28q0,16.23,8.08,24.88t22.09,8.66q14,0,22.2-8.66t8.2-24.88V65.59Z" transform="translate(0.01 0.15)"/>
      <path class="cls-1" d="M559.6,69.55a42.25,42.25,0,0,1,17.71,17.59q6.38,11.65,6.39,28.14v71.46H558.37V119.27q0-16.22-8.09-24.88t-22.09-8.66q-14,0-22.19,8.66t-8.2,24.88v67.47H472.47V65.59H497.8V79.45a41.48,41.48,0,0,1,15.75-11.66,50.64,50.64,0,0,1,20.37-4.18A54.62,54.62,0,0,1,559.6,69.55Z" transform="translate(0.01 0.15)"/>
      <path class="cls-1" d="M715.4,101.88q-5.49,10.28-17.5,16.73t-30.85,6.45H639.87v61.68H614.54v-152h52.51q17.49,0,29.68,6T714.85,57a44.72,44.72,0,0,1,6,23A46,46,0,0,1,715.4,101.88ZM688.55,97.7q7-6.45,7-18.23,0-24.9-28.17-24.89h-27.5v49.56h27.5Q681.56,104.14,688.55,97.7Z" transform="translate(0.01 0.15)"/>
      <path class="cls-1" d="M747,45.12a15.41,15.41,0,0,1-4.61-11.4,15.73,15.73,0,0,1,15.43-16h.57a15.19,15.19,0,0,1,11.17,4.6,15.42,15.42,0,0,1,4.61,11.39,15.44,15.44,0,0,1-4.61,11.4,15.19,15.19,0,0,1-11.17,4.6A15.38,15.38,0,0,1,747,45.12Zm24,20.47V186.74H745.6V65.59Z" transform="translate(0.01 0.15)"/>
      <path class="cls-1" d="M914.29,135H820.48q1.13,14.72,10.92,23.62t24.06,9q20.49,0,29-17.16h27.41a55.39,55.39,0,0,1-20.16,27.75q-14.55,10.8-36.21,10.81A62.68,62.68,0,0,1,823.93,181a56.21,56.21,0,0,1-21.84-22.29q-7.9-14.35-7.91-33.31t7.69-33.31a54.21,54.21,0,0,1,21.61-22.19q13.92-7.84,32-7.84a62.68,62.68,0,0,1,31,7.57,53.83,53.83,0,0,1,21.18,21.27q7.54,13.71,7.56,31.54A79.46,79.46,0,0,1,914.29,135ZM888.1,115.15q-.21-13.82-9.91-22.14t-23.9-8.32a32.07,32.07,0,0,0-22.12,8.21q-9.23,8.23-11,22.25Z" transform="translate(0.01 0.15)"/>
      <path class="cls-1" d="M978.31,68.81q9.13-5.22,21.69-5.22V89.82h-6.39q-14.75,0-22.35,7.56t-7.6,26.23v63.13H938.33V65.59h25.33V83.38A39.61,39.61,0,0,1,978.31,68.81Z" transform="translate(0.01 0.15)"/>
    </g>
    <path class="cls-2" d="M94.71,200.52c-4,2.15,11-4.41,15.42-7.71s14.32-9.91,22-24.23,11-19.82,7.71-50.66-19.82-49.56-19.82-49.56c-2.21,22-13.22,23.13-13.22,23.13V72.77c0-6.61-1.1-9.92-9.91-30.84S55.07-6.53,55.07,1.18s0,23.13-5.51,37.44S31.94,68.36,15.42,89.29,0,134.44,0,134.44s2.2,29.74,16.52,45.15a82.58,82.58,0,0,0,30.84,20.93A42.71,42.71,0,0,1,30.29,168c-1.1-22,11-40.75,12.11-40.75s0,11,3.31,16.52,6.6,9.91,8.81,11,0-13.21,2.2-28.63c1.63-11.39,0-17.62,23.13-38.55,0,0,2.2,22,7.71,28.64s17.62,23.13,19.82,27.53,8.81,19.82,4.41,31.94S101.87,196.66,94.71,200.52Z" transform="translate(0.01 0.15)"/>
    <path d="M39.85,105.81" transform="translate(0.01 0.15)"/>
  </g>
</svg>
